# xmcd
#
# Track frame offsets:
#  150
#  16925
#  36412
#  54832
#  68505
#  84940
#  100505
#  114702
#  131930
#  146860
#  162280
#  175650
#
# Disc length: 2571 seconds
#
# Revision: 0
# Processed by: cddbd v1.5.1PL2 Copyright (c) Steve Scherf et al.
# Submitted via: Collectorz.com_Music_Collector 6.9
#
DISCID=980a090c
DTITLE=Lee Fields - Coming To Tear The Roof Down - Lee Fields
DYEAR=1995
DGENRE=Blues - Soul-Blues
TTITLE0=Hot and Lonely
TTITLE1=Coming To Tear The Roof Down
TTITLE2=These Arms Of Mine
TTITLE3=Two Good Men
TTITLE4=Don't Leave Me By Myself
TTITLE5=Let Me Be The One
TTITLE6=Let Me Be The One
TTITLE7=I Won't Tell Nobody
TTITLE8=Look Out For Yourself
TTITLE9=I Won't Do Nothing You Wouldn't Do
TTITLE10=I Want To Thank You For Being So Good To Me
TTITLE11=Talk Is Cheap ( You Got To Show Me )
EXTD=
EXTT0=
EXTT1=
EXTT2=
EXTT3=
EXTT4=
EXTT5=
EXTT6=
EXTT7=
EXTT8=
EXTT9=
EXTT10=
EXTT11=
PLAYORDER=
